<?xml version="1.0" encoding="UTF-8" standalone="no"?>
<!-- Created with Inkscape (http://www.inkscape.org/) -->

<svg
   xmlns:dc="http://purl.org/dc/elements/1.1/"
   xmlns:cc="http://creativecommons.org/ns#"
   xmlns:rdf="http://www.w3.org/1999/02/22-rdf-syntax-ns#"
   xmlns:svg="http://www.w3.org/2000/svg"
   xmlns="http://www.w3.org/2000/svg"
   xmlns:sodipodi="http://sodipodi.sourceforge.net/DTD/sodipodi-0.dtd"
   xmlns:inkscape="http://www.inkscape.org/namespaces/inkscape"
   id="svg2"
   version="1.1"
   inkscape:version="0.92.1 r15371"
   xml:space="preserve"
   width="787.19922"
   height="810"
   viewBox="0 0 737.99928 759.375"
   sodipodi:docname="publicdomainq-scientist-Isaac_Newton.svg"
   inkscape:export-filename="/media/juhele/data_2TB/_GRAFIKA/Publicdomainq/scientists/publicdomainq-scientist-Isaac_Newton.png"
   inkscape:export-xdpi="94.756195"
   inkscape:export-ydpi="94.756195"><title
     id="title1016">sir Isaac Newton</title><metadata
     id="metadata8"><rdf:RDF><cc:Work
         rdf:about=""><dc:format>image/svg+xml</dc:format><dc:type
           rdf:resource="http://purl.org/dc/dcmitype/StillImage" /><dc:title>sir Isaac Newton</dc:title><cc:license
           rdf:resource="http://creativecommons.org/publicdomain/zero/1.0/" /><dc:subject><rdf:Bag><rdf:li>publicdomainq.net</rdf:li><rdf:li>mathematics</rdf:li><rdf:li>astronomy</rdf:li><rdf:li>apple</rdf:li><rdf:li>physics</rdf:li><rdf:li>motion</rdf:li><rdf:li>gravity</rdf:li><rdf:li>law</rdf:li><rdf:li>mechanics</rdf:li><rdf:li>scientist</rdf:li><rdf:li>head</rdf:li><rdf:li>face</rdf:li><rdf:li>English</rdf:li><rdf:li>England</rdf:li></rdf:Bag></dc:subject><dc:description>This image was adapted from a picture posted to publicdomainq.net. All of the images on these sites are in the public domain i.e. CC0. This site is only in Japanese but can be easily navigated with Google Translate.</dc:description></cc:Work><cc:License
         rdf:about="http://creativecommons.org/publicdomain/zero/1.0/"><cc:permits
           rdf:resource="http://creativecommons.org/ns#Reproduction" /><cc:permits
           rdf:resource="http://creativecommons.org/ns#Distribution" /><cc:permits
           rdf:resource="http://creativecommons.org/ns#DerivativeWorks" /></cc:License></rdf:RDF></metadata><defs
     id="defs6" /><sodipodi:namedview
     pagecolor="#ffffff"
     bordercolor="#666666"
     borderopacity="1"
     objecttolerance="10"
     gridtolerance="10"
     guidetolerance="10"
     inkscape:pageopacity="0"
     inkscape:pageshadow="2"
     inkscape:window-width="1920"
     inkscape:window-height="1125"
     id="namedview4"
     showgrid="false"
     inkscape:zoom="0.52379487"
     inkscape:cx="472.96529"
     inkscape:cy="272.77727"
     inkscape:window-x="0"
     inkscape:window-y="0"
     inkscape:window-maximized="1"
     inkscape:current-layer="svg2"
     fit-margin-top="5"
     fit-margin-left="5"
     fit-margin-bottom="5"
     fit-margin-right="5" /><g
     id="g12"
     transform="matrix(0.16241829,0,0,-0.16241829,-126.62834,836.0071)"><path
       d="m 3245.82,812.871 278.43,894.369 -312.18,244.69 -278.44,-278.44 312.19,-860.619"
       style="fill:#eeb8a9;fill-opacity:1;fill-rule:nonzero;stroke:none"
       id="path14"
       inkscape:connector-curvature="0" /><path
       d="m 2883,1816.93 286.88,-227.81 c 0,0 25.31,-160.32 0,-185.63 -25.31,-25.31 -101.25,-42.19 -101.25,-42.19 l 185.62,-464.058 118.13,506.248 -101.25,67.5 v 143.44 l 185.62,194.06 421.88,67.5 42.19,-497.81 -615.94,-877.5 -615.94,1113.75 194.06,202.5"
       style="fill:#efe7d5;fill-opacity:1;fill-rule:nonzero;stroke:none"
       id="path16"
       inkscape:connector-curvature="0" /><path
       d="m 3845.3,1863.06 c 0,0 -422.3,-1210.509 -557.3,-1269.568 L 2737.1,1775.52 c 0,0 -262.75,357.75 -296.36,323.79 -33.75,-34.18 -287.93,-273.73 -345.31,-537.4 C 1961.06,944.141 2023.22,548.84 2023.22,515.172 h 2603.46 c 0,0 -15.61,470.598 -36.35,595.048 -40.35,242.72 -83.6,564.19 -218.6,704.81 -134.86,140.56 -526.43,48.03 -526.43,48.03"
       style="fill:#393536;fill-opacity:1;fill-rule:nonzero;stroke:none"
       id="path18"
       inkscape:connector-curvature="0" /><path
       d="m 2908.32,4955.68 c 0,0 11.25,135 -213.75,101.25 -225,-33.75 -292.5,-90 -337.5,-247.5 0,0 -292.5,-56.18 -303.75,-101.25 -11.32,-45 -337.5,-146.25 -393.75,-258.75 -56.32,-112.5 -157.57,-337.5 -123.82,-472.5 33.75,-135 180.07,-315 180.07,-315 0,0 -135,-67.5 -135,-191.25 0,-123.75 0,-191.25 0,-191.25 0,0 -180.07,-191.25 -112.57,-382.5 67.5,-191.25 146.32,-247.5 146.32,-247.5 0,0 -67.5,-168.75 -56.25,-270 11.18,-101.25 11.18,-101.25 11.18,-101.25 0,0 -213.75,-123.82 -202.5,-247.5 11.32,-123.75 11.32,-168.75 11.32,-168.75 0,0 -101.25,-90 -90,-168.75 11.18,-78.75 123.75,-123.75 123.75,-123.75 0,0 112.5,45.07 180,-101.25 67.5,-146.25 202.5,-157.5 202.5,-157.5 0,0 -112.5,-33.68 -33.75,-180 78.68,-146.25 247.64,-372.578 247.64,-372.578 0,0 -45.14,88.519 72.98,316.328 118.13,227.81 658.13,607.5 658.13,607.5 l 1035,348.75 303.75,-281.25 461.18,-326.25 78.82,-720 c 0,0 393.68,135.07 427.43,292.5 33.75,157.5 -11.18,303.75 -11.18,303.75 0,0 135,67.5 123.75,247.5 -11.32,180 -123.75,281.25 -123.75,281.25 0,0 281.25,67.5 258.75,225 -22.5,157.5 -90,315 -90,315 0,0 78.68,89.93 33.75,303.75 -45,213.75 -168.75,303.75 -168.75,303.75 0,0 123.75,90.07 135,213.75 11.18,123.75 -123.82,337.5 -123.82,337.5 0,0 22.5,123.75 0,281.25 -22.43,157.5 -56.18,90 -89.93,303.75 -33.75,213.75 33.75,303.82 -101.25,326.25 -135,22.5 -135,258.75 -225,281.25 -90.07,22.5 -180,247.5 -337.5,247.5 -157.57,0 -157.57,101.25 -337.5,101.25 -180,0 -225.07,-101.25 -225.07,-101.25 0,0 -157.43,11.25 -224.93,78.75 -67.5,67.5 -157.5,90 -270,56.25 -112.57,-33.75 -112.57,-33.75 -112.57,-33.75 0,0 -213.68,168.75 -247.43,-112.5"
       style="fill:#af853e;fill-opacity:1;fill-rule:nonzero;stroke:none"
       id="path20"
       inkscape:connector-curvature="0" /><path
       d="m 2621.44,4044.43 c 0,0 -194.06,-286.88 -194.06,-455.63 0,-168.75 -25.31,-371.25 -16.88,-506.25 8.44,-135 91.76,-582.25 75.94,-902.81 -7.31,-147.16 25.31,-278.44 101.25,-286.87 75.94,-8.44 101.25,-50.63 101.25,-50.63 0,0 167.84,-160.38 286.88,-185.62 118.97,-25.24 109.68,16.87 109.68,16.87 0,0 42.19,-25.31 168.75,-25.31 126.57,0 337.5,177.19 371.25,177.19 33.75,0 253.13,-50.63 345.94,143.43 92.81,194.07 160.31,523.13 135,1122.19 -25.31,599.06 -219.37,987.19 -582.19,1054.69 -362.81,67.5 -658.12,109.69 -902.81,-101.25"
       style="fill:#f6d4c7;fill-opacity:1;fill-rule:nonzero;stroke:none"
       id="path22"
       inkscape:connector-curvature="0" /><path
       d="m 2989.88,3099.43 c 0,0 -180,-247.5 -180,-326.25 0,-78.75 2.81,-174.38 -14.06,-208.13 -16.88,-33.75 -64.69,-129.37 -16.88,-160.31 47.81,-30.94 42.12,-92.81 112.5,-81.56 70.31,11.25 101.25,70.31 194.06,75.94 92.82,5.62 154.69,33.68 205.32,28.12 50.62,-5.62 75.93,59.06 67.5,109.69 -8.44,50.62 -84.38,112.5 -84.38,112.5 0,0 -33.75,-50.63 -109.69,-78.75 -75.93,-28.13 -157.57,-56.25 -222.18,-42.19 -64.69,14.06 -81.64,75.94 -84.38,123.75"
       style="fill:#d38b7a;fill-opacity:1;fill-rule:nonzero;stroke:none"
       id="path24"
       inkscape:connector-curvature="0" /><path
       d="m 3621.28,2880.05 c 0,0 -233.15,147.45 -265.78,198.29 -143.43,223.59 12.66,253.12 12.66,253.12 0,0 341.72,71.72 480.94,-8.44 0,0 -274.85,33.26 -177.19,-88.59 97.6,-121.85 67.36,-120.3 -76.08,-128.74 0,0 -84.23,19.05 -75.8,-31.57 8.44,-50.63 101.25,-194.07 101.25,-194.07"
       style="fill:#eeb8a9;fill-opacity:1;fill-rule:nonzero;stroke:none"
       id="path26"
       inkscape:connector-curvature="0" /><path
       d="m 2150.21,2380.77 c 0,0 -170.16,-278.72 -95.49,-452.25 74.67,-173.53 423.07,-287.51 493.45,-460.55 23.07,-56.32 9.29,321.47 -102.23,507.51 -159.47,266.07 -295.73,405.29 -295.73,405.29"
       style="fill:#c19445;fill-opacity:1;fill-rule:nonzero;stroke:none"
       id="path28"
       inkscape:connector-curvature="0" /><path
       d="m 2073.85,2217.85 c -14.21,-67.07 -16.88,-136.68 8.08,-194.69 68.14,-158.35 363.66,-267.26 468.35,-416.6 11.04,-97.53 8.58,-164.68 -2.11,-138.59 -70.38,173.04 -418.78,287.02 -493.45,460.55 -36.98,86.2 -13.71,198.35 19.13,289.33"
       style="fill:#af853e;fill-opacity:1;fill-rule:nonzero;stroke:none"
       id="path30"
       inkscape:connector-curvature="0" /><path
       d="m 2097.82,1861.65 c 0,0 -63.35,-284.49 49.57,-409.64 113.14,-125.02 440.37,-120.94 549.64,-246.87 35.65,-40.99 -84.8,274.22 -232.6,399.31 -211.43,178.87 -366.61,257.2 -366.61,257.2"
       style="fill:#c19445;fill-opacity:1;fill-rule:nonzero;stroke:none"
       id="path32"
       inkscape:connector-curvature="0" /><path
       d="m 2080.24,1702.04 c 7.32,-60.82 25.25,-120.37 62.93,-162.14 103.15,-114.19 384.19,-121.08 515.82,-217.05 37.41,-79.25 54.56,-136.69 38.04,-117.71 -109.27,125.93 -436.5,121.85 -549.64,246.87 -56.11,62.16 -68.62,163.62 -67.15,250.03"
       style="fill:#af853e;fill-opacity:1;fill-rule:nonzero;stroke:none"
       id="path34"
       inkscape:connector-curvature="0" /><path
       d="m 2150.35,1432.39 c 0,0 19.19,-268.73 152.57,-349.59 133.25,-80.86 421.95,9.56 552.24,-72.99 42.47,-26.857 -147.8,220.43 -311.98,292.01 -234.63,102.37 -392.83,130.57 -392.83,130.57"
       style="fill:#c19445;fill-opacity:1;fill-rule:nonzero;stroke:none"
       id="path36"
       inkscape:connector-curvature="0" /><path
       d="m 2177,1286.42 c 22.57,-51.96 54.21,-99.98 98.79,-126.98 121.71,-73.83 372.51,-5.27 514.4,-55.55 54.14,-60.18 84.52,-106.519 64.97,-94.08 -130.29,82.55 -294.4,-65.107 -441.14,-12.509 C 2256.03,1053.97 2198.51,1209.5 2177,1286.42"
       style="fill:#af853e;fill-opacity:1;fill-rule:nonzero;stroke:none"
       id="path38"
       inkscape:connector-curvature="0" /><path
       d="m 2408.89,884.871 c 12.65,-134.512 132.18,-233.301 266.62,-220.5 134.58,12.719 233.3,132.262 220.5,266.692 -12.72,134.577 -132.19,233.227 -266.63,220.497 -134.5,-12.72 -233.29,-132.11 -220.49,-266.689"
       style="fill:#c19445;fill-opacity:1;fill-rule:nonzero;stroke:none"
       id="path40"
       inkscape:connector-curvature="0" /><path
       d="m 2449.74,750.293 c 10.54,-111.313 109.47,-193.012 220.71,-182.461 111.44,10.539 193.15,109.41 182.6,220.711 C 2842.5,899.84 2743.72,981.551 2632.27,971 2520.97,960.453 2439.19,861.672 2449.74,750.293"
       style="fill:#af853e;fill-opacity:1;fill-rule:nonzero;stroke:none"
       id="path42"
       inkscape:connector-curvature="0" /><path
       d="m 2480.19,668.453 c 7.87,-83.531 82.05,-144.781 165.51,-136.902 83.53,7.941 144.77,82.051 136.9,165.582 -7.88,83.469 -82.06,144.777 -165.59,136.898 -83.53,-7.941 -144.77,-82.051 -136.82,-165.578"
       style="fill:#d9ae49;fill-opacity:1;fill-rule:nonzero;stroke:none"
       id="path44"
       inkscape:connector-curvature="0" /><path
       d="m 2513.79,612.34 c 5.07,-54.141 53.16,-93.867 107.37,-88.738 54,5.14 93.73,53.089 88.66,107.3 -5.13,54.071 -53.22,93.801 -107.29,88.731 -54.14,-5.203 -93.87,-53.223 -88.74,-107.293"
       style="fill:#af853e;fill-opacity:1;fill-rule:nonzero;stroke:none"
       id="path46"
       inkscape:connector-curvature="0" /><path
       d="m 3395.58,3209.68 44.79,53.44 c 0,0 81.77,57.51 142.24,66.16 60.61,8.58 150.47,7.66 213.54,-29.39 0,0 -147.37,25.67 -226.19,1.97 -78.82,-23.76 -174.38,-92.18 -174.38,-92.18"
       style="fill:#231f20;fill-opacity:1;fill-rule:nonzero;stroke:none"
       id="path48"
       inkscape:connector-curvature="0" /><path
       d="m 2815.15,2218.84 c 0,0 56.32,-28.13 129.38,-28.13 73.12,0 104.06,2.82 188.43,0 84.38,-2.81 298.13,19.69 298.13,19.69 0,0 -202.5,53.51 -278.44,59.06 -75.94,5.63 -73.12,-25.31 -115.31,-25.31 -42.19,0 152.58,4.15 -78.75,16.88 -101.25,5.62 -143.44,-42.19 -143.44,-42.19"
       style="fill:#a7556d;fill-opacity:1;fill-rule:nonzero;stroke:none"
       id="path50"
       inkscape:connector-curvature="0" /><path
       d="m 2967.38,2115.05 c 0,0 -2.81,-30.93 39.37,-28.12 42.19,2.81 81.57,22.5 118.13,14.06 36.56,-8.44 56.18,-39.3 -22.5,-42.19 -78.75,-2.81 -185.63,-19.68 -135,56.25"
       style="fill:#9b6d62;fill-opacity:1;fill-rule:nonzero;stroke:none"
       id="path52"
       inkscape:connector-curvature="0" /><path
       d="m 3282.38,2649.43 c 0,0 154.62,-109.69 216.56,-202.5 61.88,-92.81 70.31,-180 70.31,-180 0,0 -33.75,106.95 -109.68,188.44 -75.94,81.56 -210.94,165.93 -210.94,165.93 l 33.75,28.13"
       style="fill:#d38b7a;fill-opacity:1;fill-rule:nonzero;stroke:none"
       id="path54"
       inkscape:connector-curvature="0" /><path
       d="m 3476.37,1738.18 c 8.44,2.81 -182.74,-67.5 -292.43,-56.25 -58.92,6.05 -101.25,53.44 -101.25,53.44 0,0 -29.88,-67.36 -95.69,-61.88 -82.06,6.75 -219.1,121.36 -306.5,202.5 -54.35,50.49 -22.57,115.31 -22.57,115.31 -7.52,0.57 -60.11,-28.75 -81.49,-11.25 -123.75,101.25 -14.06,374.07 -42.19,587.82 -28.19,213.75 -14.06,444.37 -14.06,444.37 l -110.81,106.03 c 0.21,-12.16 0.42,-24.47 1.12,-35.72 8.44,-135 91.76,-582.25 75.94,-902.81 -7.31,-147.16 25.31,-278.44 101.25,-286.87 75.94,-8.44 101.25,-50.63 101.25,-50.63 0,0 167.84,-160.38 286.88,-185.62 118.97,-25.24 109.68,16.87 109.68,16.87 0,0 42.19,-25.31 168.75,-25.31 53.3,0 158.49,53.65 222.12,90"
       style="fill:#eeb8a9;fill-opacity:1;fill-rule:nonzero;stroke:none"
       id="path56"
       inkscape:connector-curvature="0" /><path
       d="m 3361.55,3170.17 c 0,0 42.47,-137.33 193.08,-142.25 110.32,-3.65 150.82,22.15 193.78,80.44 42.89,58.43 24.96,94.43 24.96,94.43 0,0 -76.29,69.96 -220.29,68.13 -144,-1.9 -191.53,-100.75 -191.53,-100.75"
       style="fill:#ffffff;fill-opacity:1;fill-rule:nonzero;stroke:none"
       id="path58"
       inkscape:connector-curvature="0" /><path
       d="m 3361.55,3170.17 c 0,0 90.14,49.35 153.21,53.64 63,4.29 265.22,-43.52 265.22,-43.52 0,0 -87.4,101.46 -226.9,90.63 -139.5,-10.83 -191.53,-100.75 -191.53,-100.75"
       style="fill:#c3c3c4;fill-opacity:1;fill-rule:nonzero;stroke:none"
       id="path60"
       inkscape:connector-curvature="0" /><path
       d="m 3691.88,3134.73 c -0.14,-63.35 -51.61,-114.54 -114.89,-114.33 -63.43,0.14 -114.54,51.61 -114.47,114.96 0.21,63.42 51.68,114.61 115.03,114.47 63.42,-0.21 114.68,-51.68 114.33,-115.1"
       style="fill:#5e6268;fill-opacity:1;fill-rule:nonzero;stroke:none"
       id="path62"
       inkscape:connector-curvature="0" /><path
       d="m 3361.55,3170.17 c 0,0 22.64,71.99 112.85,103.21 90,31.29 261.07,28.48 341.51,-117.91 0,0 -161.51,82.83 -262.76,83.11 -130.92,0.35 -191.6,-68.41 -191.6,-68.41"
       style="fill:#231f20;fill-opacity:1;fill-rule:nonzero;stroke:none"
       id="path64"
       inkscape:connector-curvature="0" /><path
       d="m 2933.63,3015.05 c 0,0 -130.78,-92.81 -227.81,-92.81 -97.04,0 -298.13,140.63 -298.13,140.63 v 247.5 l 184.22,59.06 c 0,0 236.25,-54.84 329.06,-50.63 92.81,4.22 172.97,-50.62 118.13,-113.9 -54.85,-63.28 -105.47,-189.85 -105.47,-189.85"
       style="fill:#ecac98;fill-opacity:1;fill-rule:nonzero;stroke:none"
       id="path66"
       inkscape:connector-curvature="0" /><path
       d="m 3620.44,3153.85 c 0,-32.9 -26.79,-59.48 -59.77,-59.41 -33.04,0.07 -59.48,26.86 -59.41,59.76 0.07,32.91 26.79,59.56 59.7,59.49 33.11,-0.14 59.48,-26.86 59.48,-59.84"
       style="fill:#231f20;fill-opacity:1;fill-rule:nonzero;stroke:none"
       id="path68"
       inkscape:connector-curvature="0" /><path
       d="m 3663.47,3107.8 c -0.14,-18.57 -15.18,-33.75 -33.89,-33.68 -18.56,0.07 -33.68,15.19 -33.61,33.82 0,18.63 15.19,33.75 33.82,33.68 18.56,-0.07 33.68,-15.19 33.68,-33.82"
       style="fill:#ffffff;fill-opacity:1;fill-rule:nonzero;stroke:none"
       id="path70"
       inkscape:connector-curvature="0" /><path
       d="m 3779.98,3180.29 c 0,0 -25.03,-139.43 -139.85,-157.08 -104.55,-16.1 -166.43,20.67 -166.43,20.67 0,0 124.38,-13.22 186.75,8.51 83.32,29.04 119.53,127.9 119.53,127.9"
       style="fill:#231f20;fill-opacity:1;fill-rule:nonzero;stroke:none"
       id="path72"
       inkscape:connector-curvature="0" /><path
       d="m 2913.1,3136.42 c 0,0 -42.4,-137.33 -193.08,-142.25 -110.25,-3.65 -150.75,22.15 -193.71,80.44 -42.89,58.43 -24.96,94.43 -24.96,94.43 0,0 76.22,69.96 220.29,68.13 143.93,-1.9 191.46,-100.75 191.46,-100.75"
       style="fill:#ffffff;fill-opacity:1;fill-rule:nonzero;stroke:none"
       id="path74"
       inkscape:connector-curvature="0" /><path
       d="m 2913.1,3136.42 c 0,0 -90.07,49.35 -153.14,53.64 -63,4.29 -265.29,-43.52 -265.29,-43.52 0,0 87.4,101.46 226.97,90.63 139.42,-10.83 191.46,-100.75 191.46,-100.75"
       style="fill:#c3c3c4;fill-opacity:1;fill-rule:nonzero;stroke:none"
       id="path76"
       inkscape:connector-curvature="0" /><path
       d="m 2582.77,3100.98 c 0.14,-63.35 51.61,-114.54 114.96,-114.33 63.35,0.14 114.54,51.61 114.4,114.96 -0.21,63.42 -51.68,114.61 -115.03,114.47 -63.42,-0.21 -114.68,-51.68 -114.33,-115.1"
       style="fill:#5e6268;fill-opacity:1;fill-rule:nonzero;stroke:none"
       id="path78"
       inkscape:connector-curvature="0" /><path
       d="m 2913.1,3136.42 c 0,0 -22.64,71.99 -112.78,103.21 -90,31.29 -261.07,28.48 -341.58,-117.91 0,0 161.58,82.83 262.83,83.11 130.85,0.35 191.53,-68.41 191.53,-68.41"
       style="fill:#231f20;fill-opacity:1;fill-rule:nonzero;stroke:none"
       id="path80"
       inkscape:connector-curvature="0" /><path
       d="m 2654.21,3120.1 c 0.07,-32.9 26.79,-59.48 59.76,-59.41 33.05,0.07 59.56,26.86 59.49,59.76 -0.07,32.91 -26.79,59.56 -59.77,59.49 -33.05,-0.14 -59.48,-26.86 -59.48,-59.84"
       style="fill:#231f20;fill-opacity:1;fill-rule:nonzero;stroke:none"
       id="path82"
       inkscape:connector-curvature="0" /><path
       d="m 2722.69,3074.05 c 0,-18.57 15.12,-33.75 33.75,-33.68 18.63,0.07 33.75,15.19 33.68,33.82 0,18.63 -15.19,33.75 -33.82,33.68 -18.56,-0.07 -33.61,-15.19 -33.61,-33.82"
       style="fill:#ffffff;fill-opacity:1;fill-rule:nonzero;stroke:none"
       id="path84"
       inkscape:connector-curvature="0" /><path
       d="m 2494.67,3146.54 c 0,0 25.1,-139.43 139.92,-157.08 104.56,-16.1 166.43,20.67 166.43,20.67 0,0 -124.38,-13.22 -186.75,8.51 -83.39,29.04 -119.6,127.9 -119.6,127.9"
       style="fill:#231f20;fill-opacity:1;fill-rule:nonzero;stroke:none"
       id="path86"
       inkscape:connector-curvature="0" /><path
       d="m 3245.82,3352.55 c 0,0 75.93,-75.93 126.56,-75.93 50.62,0 257.34,59.06 341.72,59.06 84.37,0 295.31,-63.28 295.31,-63.28 0,0 -198.28,126.56 -312.19,130.78 -113.9,4.22 -451.4,-50.63 -451.4,-50.63"
       style="fill:#884c1b;fill-opacity:1;fill-rule:nonzero;stroke:none"
       id="path88"
       inkscape:connector-curvature="0" /><path
       d="m 3013.78,3251.3 c 0,0 -109.68,84.38 -248.9,135 -139.22,50.63 -151.88,42.19 -202.5,33.75 -50.63,-8.43 -151.88,-88.59 -151.88,-88.59 l -8.43,-71.72 c 0,0 156.09,92.81 219.37,71.72"
       style="fill:#884c1b;fill-opacity:1;fill-rule:nonzero;stroke:none"
       id="path90"
       inkscape:connector-curvature="0" /><path
       d="m 3165.66,2546.77 c -84.38,-4.22 -101.25,-50.62 -122.34,-71.72 -21.1,-21.09 -37.97,-4.21 -63.29,-4.21 -25.31,0 -67.5,0 -109.68,59.06 -42.19,59.06 12.65,206.72 12.65,219.37 0,12.66 50.63,143.44 67.5,219.38 16.88,75.94 50.63,130.78 59.07,189.84 8.43,59.06 -29.54,109.69 -29.54,109.69 -4.21,-63.28 -54.84,-312.19 -80.15,-379.69 -13.64,-36.28 -119.18,-328.01 -53.44,-393.75 93.45,-93.44 89.3,-95.41 182.81,-84.37 10.34,14.84 41.21,36.98 56.25,52.03 29.53,29.53 84.38,33.75 135,21.09 50.63,-12.65 54.85,21.1 54.85,46.41 0,25.31 -25.32,21.09 -109.69,16.87"
       style="fill:#9b6d62;fill-opacity:1;fill-rule:nonzero;stroke:none"
       id="path92"
       inkscape:connector-curvature="0" /><path
       d="m 3690.19,1819.74 c 0,0 -78.82,5.63 -95.69,42.19 -16.88,36.56 -28.06,61.87 -28.06,61.87 0,0 19.69,-95.62 -11.25,-137.81 0,0 120.94,39.38 135,33.75"
       style="fill:#eeb8a9;fill-opacity:1;fill-rule:nonzero;stroke:none"
       id="path94"
       inkscape:connector-curvature="0" /><path
       d="m 4138.15,2457.83 c 0,0 277.25,-172.48 288.64,-361.06 11.25,-188.57 -248.7,-446.9 -233.87,-633.16 4.79,-60.75 -152.71,283.01 -136.75,499.22 22.85,309.37 81.98,495 81.98,495"
       style="fill:#c19445;fill-opacity:1;fill-rule:nonzero;stroke:none"
       id="path96"
       inkscape:connector-curvature="0" /><path
       d="m 4279.55,2346.6 c 42.89,-53.51 76.57,-114.48 80.3,-177.47 10.34,-172.13 -204.61,-402.19 -231.12,-582.75 34.03,-92.11 66.45,-150.9 64.19,-122.77 -14.83,186.26 245.12,444.59 233.87,633.16 -5.7,93.73 -76.93,183.31 -147.24,249.83"
       style="fill:#af853e;fill-opacity:1;fill-rule:nonzero;stroke:none"
       id="path98"
       inkscape:connector-curvature="0" /><path
       d="m 4418.35,2017.67 c 0,0 184.36,-225.63 139.78,-388.12 -44.86,-162.56 -338.91,-306 -379.97,-467.65 -13.43,-52.67 -47.53,283.08 28.27,461.25 108.49,254.81 211.92,394.52 211.92,394.52"
       style="fill:#c19445;fill-opacity:1;fill-rule:nonzero;stroke:none"
       id="path100"
       inkscape:connector-curvature="0" /><path
       d="m 4505.68,1883.02 c 20.88,-57.58 31.64,-118.89 16.8,-173.1 -40.85,-148.36 -288.84,-280.9 -363.23,-425.74 2.25,-87.69 12.72,-146.61 18.91,-122.28 41.06,161.65 335.11,305.09 379.97,467.65 22.22,80.72 -12.16,176.97 -52.45,253.47"
       style="fill:#af853e;fill-opacity:1;fill-rule:nonzero;stroke:none"
       id="path102"
       inkscape:connector-curvature="0" /><path
       d="m 4564.32,1610.63 c 0,0 103.71,-248.69 20.88,-380.88 -82.69,-132.12 -381.24,-181.12 -460.48,-313.449 -25.87,-43.031 32.91,263.389 147.38,401.059 163.62,197.02 292.22,293.27 292.22,293.27"
       style="fill:#c19445;fill-opacity:1;fill-rule:nonzero;stroke:none"
       id="path104"
       inkscape:connector-curvature="0" /><path
       d="m 4606.15,1468.25 c 3.17,-56.53 -3.51,-113.63 -31.15,-157.78 -75.58,-120.66 -330.4,-172.19 -434.53,-280.9 -21.3,-78.109 -27.63,-133.168 -15.75,-113.269 79.24,132.329 292.29,74.179 399.66,187.169 115.73,121.64 97.1,286.38 81.77,364.78"
       style="fill:#af853e;fill-opacity:1;fill-rule:nonzero;stroke:none"
       id="path106"
       inkscape:connector-curvature="0" /><path
       d="m 4579.51,1005.39 c 49.14,-125.859 -13.23,-267.827 -139.01,-316.898 -125.93,-49.082 -267.82,13.281 -316.9,139.071 -49.08,126 13.22,267.827 139.08,316.897 125.93,49.08 267.74,-13.21 316.83,-139.07"
       style="fill:#c19445;fill-opacity:1;fill-rule:nonzero;stroke:none"
       id="path108"
       inkscape:connector-curvature="0" /><path
       d="m 4603.48,866.73 c 40.64,-104.14 -10.97,-221.558 -115.1,-262.199 -104.27,-40.64 -221.63,10.969 -262.27,115.102 -40.64,104.207 10.9,221.558 115.11,262.269 104.2,40.568 221.62,-10.972 262.26,-115.172"
       style="fill:#af853e;fill-opacity:1;fill-rule:nonzero;stroke:none"
       id="path110"
       inkscape:connector-curvature="0" /><path
       d="m 4613.12,779.961 c 30.51,-78.109 -8.3,-166.211 -86.35,-196.66 -78.12,-30.52 -166.15,8.219 -196.66,86.34 -30.52,78.191 8.22,166.222 86.41,196.66 78.12,30.519 166.22,-8.149 196.6,-86.34"
       style="fill:#d9ae49;fill-opacity:1;fill-rule:nonzero;stroke:none"
       id="path112"
       inkscape:connector-curvature="0" /><path
       d="m 4608.33,714.711 c 19.83,-50.621 -5.34,-107.719 -55.97,-127.469 -50.62,-19.762 -107.64,5.27 -127.47,55.957 -19.76,50.633 5.34,107.723 55.96,127.481 50.7,19.691 107.8,-5.34 127.48,-55.969"
       style="fill:#af853e;fill-opacity:1;fill-rule:nonzero;stroke:none"
       id="path114"
       inkscape:connector-curvature="0" /><path
       d="m 5002.65,3399.24 c 9.21,-25.17 15.04,-52.03 15.04,-80.44 0,-130.43 -105.82,-236.25 -236.25,-236.25 -12.79,0 -25.03,1.83 -37.27,3.8 -31.42,-52.59 -88.31,-88.17 -153.98,-88.17 -17.71,0 -34.45,3.37 -50.55,8.08 -26.02,-76.43 -97.67,-131.83 -182.96,-131.83 -39.3,0 -75.72,11.88 -106.31,31.99 23.84,-80.08 97.24,-138.87 185.13,-138.87 85.22,0 156.87,55.41 182.96,131.84 16.1,-4.71 32.77,-8.09 50.48,-8.09 65.67,0 122.63,35.58 153.98,88.1 12.24,-1.89 24.48,-3.72 37.27,-3.72 130.43,0 236.25,105.75 236.25,236.25 0,76.71 -37.12,144.14 -93.79,187.31"
       style="fill:#c19445;fill-opacity:1;fill-rule:nonzero;stroke:none"
       id="path116"
       inkscape:connector-curvature="0" /><path
       d="m 5132.02,2741.12 c 9.21,-25.17 14.98,-52.03 14.98,-80.44 0,-130.43 -105.75,-236.25 -236.25,-236.25 -12.73,0 -24.96,1.83 -37.2,3.8 -31.43,-52.6 -88.31,-88.18 -153.98,-88.18 -17.72,0 -34.46,3.38 -50.56,8.09 -26.01,-76.43 -97.66,-131.84 -182.95,-131.84 -39.31,0 -75.8,11.89 -106.38,32 23.9,-80.09 97.31,-138.87 185.13,-138.87 85.29,0 156.94,55.41 182.95,131.83 16.1,-4.7 32.84,-8.08 50.56,-8.08 65.67,0 122.62,35.58 153.98,88.1 12.24,-1.9 24.47,-3.73 37.27,-3.73 130.43,0 236.25,105.76 236.25,236.25 0,76.72 -37.2,144.14 -93.8,187.32"
       style="fill:#c19445;fill-opacity:1;fill-rule:nonzero;stroke:none"
       id="path118"
       inkscape:connector-curvature="0" /><path
       d="m 2404.95,2826.83 c -21.59,-69.96 -86.13,-121.15 -163.2,-121.15 -45.63,0 -86.9,18.14 -117.63,47.25 -30.87,-64.34 -95.98,-109.13 -172.05,-109.13 -95.28,0 -173.6,69.82 -188.16,160.95 -11.11,-2.04 -22.36,-3.45 -34.03,-3.45 -83.18,0 -153.49,52.53 -181.13,125.94 -4.36,-16.04 -7.31,-32.56 -7.31,-50 0,-107.23 86.84,-194.06 194.06,-194.06 11.6,0 22.93,1.41 34.04,3.45 14.55,-91.13 92.88,-160.95 188.15,-160.95 76.08,0 141.19,44.79 171.99,109.12 30.79,-29.1 71.99,-47.25 117.7,-47.25 94.71,0 171.56,76.85 171.56,171.57 0,24.04 -5.06,46.96 -13.99,67.71"
       style="fill:#c19445;fill-opacity:1;fill-rule:nonzero;stroke:none"
       id="path120"
       inkscape:connector-curvature="0" /><path
       d="m 2179.88,3185.21 c -33.61,6.54 -62.51,23.63 -84.38,46.83 -30.44,-34.67 -77.55,-53.08 -126.07,-43.59 -45.49,8.85 -81,39.79 -97.87,79.45 -12.8,-0.84 -25.81,-0.7 -38.88,1.9 -64.13,12.44 -110.04,64.4 -118.97,125.64 -8.23,-14.2 -14.84,-29.6 -18.14,-46.54 -15.82,-81.14 37.12,-159.82 118.33,-175.71 13.15,-2.46 26.09,-2.67 38.81,-1.76 16.81,-39.73 52.39,-70.59 97.95,-79.45 48.51,-9.49 95.62,8.86 126.07,43.52 21.87,-23.2 50.7,-40.22 84.45,-46.83 85.64,-16.73 168.61,39.31 185.34,124.88 3.3,17.01 3.02,33.68 0.98,49.92 -32.48,-57.94 -98.86,-91.69 -167.62,-78.26"
       style="fill:#c19445;fill-opacity:1;fill-rule:nonzero;stroke:none"
       id="path122"
       inkscape:connector-curvature="0" /><path
       d="m 2029.27,1823.4 c -20.67,-74.95 -88.6,-130.22 -170.09,-130.22 -72.21,0 -134.08,43.38 -161.65,105.4 -13.28,-2.53 -26.86,-4.15 -40.78,-4.15 -91.26,0 -169.03,56.6 -200.95,136.55 -2.88,-14.13 -4.36,-28.76 -4.36,-43.74 0,-119.6 96.89,-216.56 216.56,-216.56 13.92,0 27.5,1.62 40.78,4.08 27.57,-62.02 89.44,-105.33 161.72,-105.33 97.81,0 177.19,79.32 177.19,177.19 0,27.7 -7.03,53.51 -18.42,76.78"
       style="fill:#c19445;fill-opacity:1;fill-rule:nonzero;stroke:none"
       id="path124"
       inkscape:connector-curvature="0" /><path
       d="m 5083.86,1717.58 c 0.28,-4.43 1.33,-8.65 1.33,-13.15 0,-93.23 -75.59,-168.75 -168.75,-168.75 -15.54,0 -30.23,2.74 -44.51,6.68 -25.94,-53.72 -80.36,-91.06 -143.93,-91.06 -48.02,0 -90.56,21.52 -119.95,54.92 5.13,-83.88 74.11,-150.54 159.33,-150.54 63.63,0 117.99,37.34 143.93,91.05 14.27,-3.93 28.97,-6.68 44.51,-6.68 93.16,0 168.75,75.59 168.75,168.75 0,41.7 -15.68,79.32 -40.71,108.78"
       style="fill:#c19445;fill-opacity:1;fill-rule:nonzero;stroke:none"
       id="path126"
       inkscape:connector-curvature="0" /><path
       d="m 4918.83,3965.26 c 24.82,-38.96 39.8,-84.94 39.8,-134.58 0,-138.23 -112.08,-250.31 -250.31,-250.31 -62.79,0 -119.39,23.9 -163.34,62.01 -24.26,-35.57 -61.1,-61.45 -103.99,-72.63 l 0.14,-0.63 c 0,-111.87 -90.71,-202.5 -202.5,-202.5 -36.42,0 -69.96,10.33 -99.49,27.14 34.8,-61.31 99.91,-103.08 175.43,-103.08 111.79,0 202.5,90.63 202.5,202.5 l -0.14,0.63 c 42.89,11.18 79.73,37.06 103.99,72.64 43.94,-38.11 100.54,-62.02 163.33,-62.02 138.24,0 250.32,112.08 250.32,250.31 0,88.6 -46.34,166.01 -115.74,210.52"
       style="fill:#c19445;fill-opacity:1;fill-rule:nonzero;stroke:none"
       id="path128"
       inkscape:connector-curvature="0" /><path
       d="m 2798.63,4179.43 c 0,0 -345.94,-75.94 -430.31,84.37 -84.38,160.32 -42.19,354.38 -42.19,354.38 0,0 16.87,-244.69 101.25,-303.75 84.37,-59.06 312.19,0 362.81,-42.19 50.63,-42.19 8.44,-92.81 8.44,-92.81"
       style="fill:#c19445;fill-opacity:1;fill-rule:nonzero;stroke:none"
       id="path130"
       inkscape:connector-curvature="0" /><path
       d="m 1796.32,1149.18 c -14.41,159.25 -155.67,266.2 -274.22,234.98 -59.34,-15.75 -80.01,-72.78 -152.57,-74.04 -72.64,-1.2 -95.28,55.05 -155.18,68.63 -119.54,27.2 -256.924,-84.59 -265.787,-244.34 -8.504,-154.48 47.535,-395.301 182.187,-456.898 134.71,-61.52 211.71,16.461 249.46,17.16 37.76,0.641 117.5,-74.602 249.9,-8.43 132.39,66.231 180.07,308.879 166.21,462.938"
       style="fill:#bf1b2c;fill-opacity:1;fill-rule:nonzero;stroke:none"
       id="path132"
       inkscape:connector-curvature="0" /><path
       d="m 1446.17,1437.1 -79.31,25.32 c -8.79,2.81 -18.08,-2.11 -20.96,-10.83 -2.74,-8.79 2.04,-18.14 10.9,-20.96 0,0 22.08,-15.54 20.39,-25.52 -7.87,-47.81 -21.87,-115.59 -20.74,-181.9 0.21,-9.14 7.8,-16.52 16.94,-16.38 9.29,0.14 16.6,7.8 16.46,16.94 -1.13,60.89 11.25,121.23 19.48,171.36 1.33,7.8 26.78,10.26 26.78,10.26 1.76,-0.63 3.52,-0.84 5.28,-0.84 6.96,0.14 13.36,4.64 15.53,11.6 2.82,8.79 -1.96,18.14 -10.75,20.95"
       style="fill:#351f17;fill-opacity:1;fill-rule:nonzero;stroke:none"
       id="path134"
       inkscape:connector-curvature="0" /><path
       d="m 1351.04,1191.92 c -65.82,8.93 -91.83,64.62 -93.1,67.29 -5.06,11.32 -0.07,24.75 11.32,29.89 11.39,5.13 24.82,0.13 29.89,-11.25 0.77,-1.62 20.66,-42.76 71.64,-41.84 50.77,0.77 69.4,42.68 70.1,44.51 5,11.39 18.14,16.8 29.53,11.95 11.54,-4.78 17.02,-17.86 12.24,-29.32 -1.2,-2.88 -30.09,-70.95 -111.09,-72.35 -7.24,-0.14 -14.07,0.21 -20.53,1.12"
       style="fill:#351f17;fill-opacity:1;fill-rule:nonzero;stroke:none"
       id="path136"
       inkscape:connector-curvature="0" /><path
       d="m 1956.36,730.32 -196.25,5.981 c 0,0 -142.73,136.762 -327.16,112.992 -94.36,-12.23 -196.24,-5.973 -261.56,-5.973 -65.54,0 -124.95,17.93 -107.09,-23.769 17.86,-41.621 178.45,-89.231 178.45,-89.231 0,0 -166.64,-5.968 -249.816,0 -83.321,5.981 -184.43,5.981 -184.43,5.981 0,0 35.719,-53.508 71.367,-83.25 35.645,-29.738 94.43,2.25 190.269,-29.738 107.08,-35.723 208.19,-47.614 255.79,-65.461 47.61,-17.86 350.86,-47.61 350.86,-47.61 l 273.59,-0.422 338.98,-2.461 -333,222.961"
       style="fill:#eeb8a9;fill-opacity:1;fill-rule:nonzero;stroke:none"
       id="path138"
       inkscape:connector-curvature="0" /></g></svg>